<svg width="20" height="21" viewBox="0 0 20 21" fill="none" xmlns="http://www.w3.org/2000/svg">
<path d="M14.6875 1.90625C12.3689 1.90625 10.808 3.04559 10 3.84207C9.19203 3.04559 7.63105 1.90625 5.3125 1.90625C2.13746 1.90625 0 4.45703 0 7.58016C0 11.6588 3.87668 14.2266 9.49984 18.9127C9.64469 19.0334 9.82234 19.0937 10 19.0937C10.1777 19.0937 10.3553 19.0334 10.5002 18.9127C16.1221 14.2276 20 11.6589 20 7.58016C20 4.45512 17.8606 1.90625 14.6875 1.90625ZM10 17.2971C4.82988 13.0199 1.5625 10.7438 1.5625 7.58016C1.5625 5.53707 2.85063 3.46875 5.3125 3.46875C6.4109 3.46875 7.41926 3.79922 8.30953 4.45094C8.97473 4.93789 9.33027 5.43676 9.35266 5.46867C9.49727 5.68746 9.73766 5.8191 10 5.8191C10.2623 5.8191 10.5027 5.68746 10.6473 5.46867C10.6697 5.43676 11.0253 4.93789 11.6905 4.45094C12.5807 3.79922 13.5891 3.46875 14.6875 3.46875C17.1494 3.46875 18.4375 5.53707 18.4375 7.58016C18.4375 10.7401 15.1875 13.0054 10 17.2971Z" fill="white"/>
</svg>
