<svg width="20" height="21" viewBox="0 0 20 21" fill="none" xmlns="http://www.w3.org/2000/svg">
<g clip-path="url(#clip0_4002_485)">
<path d="M19.7712 19.1663L14.5271 13.9223C15.7004 12.5031 16.4062 10.684 16.4062 8.70313C16.4062 4.17992 12.7263 0.5 8.20312 0.5C3.67992 0.5 0 4.17992 0 8.70313C0 13.2263 3.67992 16.9063 8.20312 16.9063C10.184 16.9063 12.0031 16.2004 13.4223 15.0271L18.6663 20.2712C18.9714 20.5763 19.4661 20.5763 19.7712 20.2712C20.0763 19.9661 20.0763 19.4714 19.7712 19.1663ZM8.20312 15.3438C4.54148 15.3438 1.5625 12.3648 1.5625 8.70313C1.5625 5.04148 4.54148 2.0625 8.20312 2.0625C11.8648 2.0625 14.8438 5.04148 14.8438 8.70313C14.8438 12.3648 11.8648 15.3438 8.20312 15.3438Z" fill="white"/>
</g>
<defs>
<clipPath id="clip0_4002_485">
<rect width="20" height="20" fill="white" transform="translate(0 0.5)"/>
</clipPath>
</defs>
</svg>
