<svg width="20" height="21" viewBox="0 0 20 21" fill="none" xmlns="http://www.w3.org/2000/svg">
<g clip-path="url(#clip0_4002_492)">
<path d="M17.6562 5.1875H15.2755C14.9652 2.55164 12.7179 0.5 10 0.5C7.28215 0.5 5.0348 2.55164 4.72445 5.1875H2.34375C1.91227 5.1875 1.5625 5.53727 1.5625 5.96875V19.7188C1.5625 20.1502 1.91227 20.5 2.34375 20.5H17.6562C18.0877 20.5 18.4375 20.1502 18.4375 19.7188V5.96875C18.4375 5.53727 18.0877 5.1875 17.6562 5.1875ZM10 2.0625C11.8548 2.0625 13.3992 3.41621 13.6976 5.1875H6.30238C6.60082 3.41621 8.14516 2.0625 10 2.0625ZM16.875 18.9375H3.125V6.75H4.6875V9.09375C4.6875 9.52523 5.03727 9.875 5.46875 9.875C5.90023 9.875 6.25 9.52523 6.25 9.09375V6.75H13.75V9.09375C13.75 9.52523 14.0998 9.875 14.5312 9.875C14.9627 9.875 15.3125 9.52523 15.3125 9.09375V6.75H16.875V18.9375Z" fill="white"/>
</g>
<defs>
<clipPath id="clip0_4002_492">
<rect width="20" height="20" fill="white" transform="translate(0 0.5)"/>
</clipPath>
</defs>
</svg>
